<svg version="1.1" id="Layer_1" xmlns="http://www.w3.org/2000/svg" xmlns:xlink="http://www.w3.org/1999/xlink" x="0px" y="0px"
	 width="100%" viewBox="0 0 500 420" enable-background="new 0 0 500 420" xml:space="preserve">
<path fill="#D1D2D3" opacity="1.000000" stroke="none" 
	d="
M386.008667,130.016602 
	C376.354675,141.826187 366.773956,153.696594 357.031097,165.432373 
	C338.186920,188.131210 319.247498,210.750946 300.354828,233.409561 
	C284.027832,252.991165 267.710876,272.581146 251.069443,292.551514 
	C249.299698,290.448456 247.721329,288.572784 246.048828,285.991089 
	C245.448593,283.898285 245.110138,282.420105 244.411545,281.138245 
	C231.301773,257.082703 218.153946,233.047913 205.003952,209.014343 
	C197.528244,195.351395 189.953079,181.742020 182.590302,168.018600 
	C179.804398,162.826004 177.489777,157.380585 175.432968,152.030762 
	C225.601639,152.006393 275.297668,152.001663 325.229828,152.000381 
	C325.465973,152.003830 325.938354,152.005936 325.974731,152.250397 
	C326.172485,152.754318 326.333832,153.013763 326.495148,153.273224 
	C326.667908,152.854706 326.840637,152.436172 327.009033,152.010071 
	C327.004700,152.002518 327.006042,152.023239 327.342346,151.881165 
	C341.894928,146.114792 356.072510,140.389526 370.348114,134.920151 
	C375.446198,132.966949 380.781586,131.633133 386.008667,130.016602 
z"/>
<path fill="#B7B8BB" opacity="1.000000" stroke="none" 
	d="
M386.349609,129.854553 
	C380.781586,131.633133 375.446198,132.966949 370.348114,134.920151 
	C356.072510,140.389526 341.894928,146.114792 327.326660,151.509369 
	C323.933380,144.413940 321.095490,137.449112 317.808044,130.703384 
	C311.188507,117.120438 304.410706,103.611771 297.440369,90.206543 
	C296.657379,88.700706 294.217285,87.157127 292.539032,87.149826 
	C262.935425,87.020828 233.330780,87.127998 203.504333,87.040405 
	C203.032150,86.645485 202.781982,86.394211 203.027863,86.096176 
	C233.425476,86.029266 263.327026,86.015778 293.228577,85.972641 
	C295.042145,85.970024 296.952972,86.058487 298.653107,85.550682 
	C311.033844,81.852806 323.390625,78.070618 335.696533,74.132423 
	C336.988800,73.718872 337.901825,72.120476 338.990814,71.071793 
	C340.922333,72.147659 343.362976,72.789635 344.706726,74.366417 
	C358.409058,90.445168 371.972168,106.643471 385.451813,122.909805 
	C386.957733,124.727005 390.500671,126.687469 386.349609,129.854553 
z"/>
<path fill="#C8C9CB" opacity="1.000000" stroke="none" 
	d="
M338.697327,70.846916 
	C337.901825,72.120476 336.988800,73.718872 335.696533,74.132423 
	C323.390625,78.070618 311.033844,81.852806 298.653107,85.550682 
	C296.952972,86.058487 295.042145,85.970024 293.228577,85.972641 
	C263.327026,86.015778 233.425476,86.029266 202.673965,86.057800 
	C188.372833,81.940147 174.918488,77.824272 161.481720,73.651772 
	C160.929413,73.480263 160.542160,72.777122 160.078018,72.321671 
	C168.679840,69.417282 177.437683,66.901115 185.848312,63.520977 
	C199.789169,57.918297 214.206284,57.263519 228.946548,57.622875 
	C245.101837,58.016731 261.297180,58.245213 277.432159,57.549698 
	C291.528748,56.942051 304.845032,59.388592 317.977478,64.073936 
	C324.708252,66.475311 331.590210,68.452919 338.697327,70.846916 
z"/>
<path fill="#EDEDED" opacity="1.000000" stroke="none" 
	d="
M159.723724,72.281349 
	C160.542160,72.777122 160.929413,73.480263 161.481720,73.651772 
	C174.918488,77.824272 188.372833,81.940147 202.177917,86.104576 
	C202.781982,86.394211 203.032150,86.645485 203.400055,87.346230 
	C193.981705,108.466522 184.445587,129.137344 174.654968,149.836197 
	C174.232758,149.896103 174.065063,149.927979 173.493301,149.970886 
	C166.986862,147.914825 160.803680,146.056717 154.799896,143.734711 
	C144.179367,139.627106 133.601486,135.390900 123.153275,130.867722 
	C120.193237,129.586273 117.745041,127.122490 115.062103,125.200943 
	C128.821320,108.258797 142.568329,91.306679 156.373032,74.401665 
	C157.125458,73.480255 158.359573,72.952194 159.723724,72.281349 
z"/>
<path fill="#E2E2E4" opacity="1.000000" stroke="none" 
	d="
M114.790787,125.334709 
	C117.745041,127.122490 120.193237,129.586273 123.153275,130.867722 
	C133.601486,135.390900 144.179367,139.627106 154.799896,143.734711 
	C160.803680,146.056717 166.986862,147.914825 173.527191,150.277649 
	C174.296860,151.065750 174.628601,151.558075 174.960327,152.050400 
	C177.489777,157.380585 179.804398,162.826004 182.590302,168.018600 
	C189.953079,181.742020 197.528244,195.351395 205.003952,209.014343 
	C218.153946,233.047913 231.301773,257.082703 244.411545,281.138245 
	C245.110138,282.420105 245.448593,283.898285 245.980438,285.659729 
	C236.244156,274.523224 226.431137,263.054840 216.730896,251.491867 
	C197.324142,228.358521 177.952057,205.195923 158.617523,182.002197 
	C144.178116,164.680664 129.791626,147.314636 115.496933,129.873871 
	C114.646065,128.835724 114.821571,126.956375 114.790787,125.334709 
z"/>
<path fill="#E2E2E3" opacity="1.000000" stroke="none" 
	d="
M119.240158,333.689240 
	C123.176353,333.789612 126.662262,333.846893 130.143356,334.008148 
	C135.657883,334.263519 140.275604,336.172791 142.376953,341.704926 
	C144.479797,347.241028 142.655487,352.229309 137.319702,356.539581 
	C136.817932,356.944916 136.307480,357.339539 135.574753,357.917664 
	C138.805466,363.323669 141.998764,368.666992 145.550781,374.610626 
	C142.271103,374.770935 139.660583,375.256439 137.173767,374.893829 
	C135.526337,374.653564 133.487686,373.567017 132.611938,372.218048 
	C129.856781,367.974213 127.568344,363.427399 124.053284,359.222351 
	C124.053284,364.185120 124.053284,369.147919 124.053284,374.475220 
	C120.251183,374.475220 117.039322,374.475220 113.492760,374.475220 
	C113.492760,361.132568 113.492760,347.752747 113.492760,333.989807 
	C115.226837,333.892517 117.007278,333.792664 119.240158,333.689240 
M130.929764,350.377075 
	C131.075409,347.939331 132.159012,344.905212 131.097198,343.235229 
	C130.079132,341.634033 126.835052,341.448242 123.983490,340.431580 
	C123.983490,345.000732 123.983490,348.358215 123.983490,352.396851 
	C126.332520,351.850952 128.306610,351.392212 130.929764,350.377075 
z"/>
<path fill="#E3E3E3" opacity="1.000000" stroke="none" 
	d="
M155.906525,346.955811 
	C160.930496,341.045776 167.199875,340.987701 173.474152,342.718872 
	C179.403107,344.354828 182.165024,349.219269 182.737122,355.028809 
	C183.419800,361.961212 183.037598,368.761871 176.214508,373.077087 
	C166.864777,378.990265 155.428345,374.159729 152.965820,363.363892 
	C151.645050,357.573639 152.401810,352.216888 155.906525,346.955811 
M165.327591,367.157227 
	C169.019531,369.206787 171.448608,367.298157 171.976212,364.000732 
	C172.563004,360.333496 172.268860,356.403076 171.610962,352.720703 
	C171.357361,351.301270 169.028473,349.270569 167.681198,349.297882 
	C166.262680,349.326630 163.730576,351.454498 163.700058,352.714020 
	C163.587997,357.338226 164.313080,361.982727 165.327591,367.157227 
z"/>
<path fill="#E4E4E4" opacity="1.000000" stroke="none" 
	d="
M240.624283,343.421936 
	C249.507034,340.132355 256.912689,341.935425 260.929657,348.092072 
	C265.210632,354.653351 264.262848,365.971832 258.988434,371.273987 
	C251.228119,379.075134 237.304535,375.727142 233.946594,365.252533 
	C231.144699,356.512512 233.516418,348.431244 240.624283,343.421936 
M246.259415,349.660461 
	C243.310028,352.951294 242.138153,362.067169 244.540115,365.471527 
	C245.374084,366.653534 247.191696,367.871735 248.483978,367.794800 
	C249.778076,367.717804 251.909088,366.162598 252.050674,365.048981 
	C252.563416,361.016510 252.708160,356.871643 252.376160,352.819611 
	C252.139999,349.937256 250.024063,348.541656 246.259415,349.660461 
z"/>
<path fill="#E1E2E2" opacity="1.000000" stroke="none" 
	d="
M274.392670,355.988251 
	C274.392792,351.523590 274.392792,347.550446 274.392792,343.280304 
	C277.968781,343.280304 281.207123,343.280304 284.752716,343.280304 
	C284.752716,349.933960 284.610046,356.551544 284.854492,363.154816 
	C284.914581,364.777039 286.238068,366.352448 286.980743,367.949402 
	C288.667206,366.253723 291.635956,364.678162 291.808075,362.840637 
	C292.408051,356.436157 292.040131,349.941040 292.040131,343.228149 
	C295.186066,343.228149 298.274841,343.228149 301.664337,343.228149 
	C301.664337,353.342224 301.664337,363.432312 301.664337,374.477753 
	C298.728088,374.036285 295.818909,373.525818 292.889099,373.202179 
	C291.990631,373.102997 290.955475,373.339630 290.118835,373.720795 
	C280.880066,377.929596 274.528778,374.016357 274.398773,363.973877 
	C274.366425,361.476257 274.393036,358.977814 274.392670,355.988251 
z"/>
<path fill="#E6E6E6" opacity="1.000000" stroke="none" 
	d="
M314.740021,367.059021 
	C314.740295,358.980988 314.740295,351.344360 314.740295,342.505920 
	C318.196625,343.159668 321.164246,343.839996 324.169891,344.217560 
	C325.082214,344.332153 326.143646,343.701477 327.061951,343.257446 
	C335.346466,339.251495 341.442383,342.265869 342.137787,351.365387 
	C342.704407,358.780121 342.252960,366.272614 342.252960,373.963776 
	C338.897858,373.963776 335.806854,373.963776 332.174530,373.963776 
	C332.174530,367.136169 332.320557,360.520599 332.071960,353.919891 
	C332.009735,352.268097 330.677917,350.664154 329.929596,349.038208 
	C328.253113,350.767975 325.306976,352.378235 325.130890,354.249176 
	C324.528870,360.647461 324.900146,367.137360 324.900146,373.908875 
	C321.641541,373.908875 318.575043,373.908875 315.080139,373.908875 
	C314.962799,371.699951 314.851288,369.600189 314.740021,367.059021 
z"/>
<path fill="#E5E5E5" opacity="1.000000" stroke="none" 
	d="
M370.444397,374.998413 
	C363.127869,373.371124 360.862915,370.463104 360.577789,362.512604 
	C360.435883,358.556091 360.553101,354.590302 360.553101,350.456635 
	C358.395660,350.257751 356.618042,350.093903 354.556702,349.903870 
	C354.556702,347.696838 354.556702,345.629028 354.556702,343.224792 
	C356.331909,343.071808 358.100037,342.919434 360.218384,342.736908 
	C360.413055,340.568817 360.598969,338.498230 360.802185,336.234528 
	C363.928802,335.765778 367.009705,335.303833 370.593506,334.766510 
	C370.733643,337.583832 370.853516,339.993378 370.998840,342.914795 
	C374.042084,342.914795 377.119873,342.914795 380.540436,342.914795 
	C380.169434,345.521057 379.876312,347.580231 379.546234,349.898956 
	C376.800781,349.898956 374.187042,349.898956 370.946533,349.898956 
	C370.946533,355.028351 370.675751,359.960938 371.141846,364.822845 
	C371.254700,366.000183 373.674469,367.454071 375.263092,367.843353 
	C376.673218,368.188812 378.402069,367.233459 380.475586,366.735809 
	C381.407379,368.572968 382.359528,370.450256 383.934906,373.556335 
	C379.171295,374.086212 375.024200,374.547546 370.444397,374.998413 
z"/>
<path fill="#E2E2E3" opacity="1.000000" stroke="none" 
	d="
M218.310730,351.426666 
	C216.509827,351.025055 214.976440,350.510773 213.449753,349.977203 
	C212.827026,349.759613 212.034760,349.126465 211.635254,349.323212 
	C209.672302,350.290009 207.207474,351.040466 206.050339,352.670074 
	C203.789612,355.853882 204.154175,364.028778 206.729797,365.828156 
	C208.543579,367.095337 211.416733,367.129852 213.822540,367.154266 
	C215.160263,367.167816 216.509628,366.032654 218.164169,365.272644 
	C219.570801,367.255127 220.884766,369.107025 222.184021,370.938171 
	C215.432449,376.832062 204.272202,376.636383 198.591965,370.706451 
	C192.793503,364.653107 192.739655,353.381256 198.478195,346.900085 
	C203.980377,340.685883 214.869217,340.248871 222.185562,346.208313 
	C221.003296,347.880341 219.792114,349.593262 218.310730,351.426666 
z"/>
<path fill="#C9CACC" opacity="1.000000" stroke="none" 
	d="
M174.909485,149.808151 
	C184.445587,129.137344 193.981705,108.466522 203.622086,87.489883 
	C233.330780,87.127998 262.935425,87.020828 292.539032,87.149826 
	C294.217285,87.157127 296.657379,88.700706 297.440369,90.206543 
	C304.410706,103.611771 311.188507,117.120438 317.808044,130.703384 
	C321.095490,137.449112 323.933380,144.413940 326.990356,151.651443 
	C327.006042,152.023239 327.004700,152.002518 326.740295,152.001129 
	C326.296722,152.001801 326.117523,152.003860 325.938354,152.005936 
	C325.938354,152.005936 325.465973,152.003830 324.920776,151.722748 
	C322.400055,151.294647 320.424622,151.020325 318.449066,151.019272 
	C272.642487,150.995117 226.835907,151.015945 181.029419,150.950089 
	C178.988892,150.947159 176.949432,150.205643 174.909485,149.808151 
z"/>
<path fill="#BDBFC1" opacity="1.000000" stroke="none" 
	d="
M174.654968,149.836197 
	C176.949432,150.205643 178.988892,150.947159 181.029419,150.950089 
	C226.835907,151.015945 272.642487,150.995117 318.449066,151.019272 
	C320.424622,151.020325 322.400055,151.294647 324.684631,151.719299 
	C275.297668,152.001663 225.601639,152.006393 175.432968,152.030762 
	C174.628601,151.558075 174.296860,151.065750 173.931244,150.266647 
	C174.065063,149.927979 174.232758,149.896103 174.654968,149.836197 
z"/>
<path fill="#BDBFC1" opacity="1.000000" stroke="none" 
	d="
M325.974731,152.250397 
	C326.117523,152.003860 326.296722,152.001801 326.744629,152.008698 
	C326.840637,152.436172 326.667908,152.854706 326.495148,153.273224 
	C326.333832,153.013763 326.172485,152.754318 325.974731,152.250397 
z"/>
</svg>